<!-- static/favicon.svg -->
<svg xmlns="http://www.w3.org/2000/svg" viewBox="0 0 256 256">
  <title>PN</title>
  <defs>
    <!-- Stormy dark bg -->
    <linearGradient id="bg" x1="0" y1="0" x2="1" y2="1">
      <stop offset="0%"  stop-color="#07090c"/>
      <stop offset="100%" stop-color="#0e121a"/>
    </linearGradient>

    <!-- Subtle vignette -->
    <radialGradient id="vig" cx="50%" cy="45%" r="70%">
      <stop offset="55%" stop-color="rgba(0,0,0,0)"/>
      <stop offset="100%" stop-color="rgba(0,0,0,0.55)"/>
    </radialGradient>

    <!-- Cold, subdued neon stroke -->
    <linearGradient id="stroke" x1="0" y1="0" x2="1" y2="1">
      <stop offset="0%"   stop-color="#8fb6c9"/>
      <stop offset="50%"  stop-color="#4b5ea0"/>
      <stop offset="100%" stop-color="#a6c1ff"/>
    </linearGradient>

    <!-- Soft glow -->
    <filter id="glow" x="-30%" y="-30%" width="160%" height="160%">
      <feGaussianBlur stdDeviation="2.6" result="b"/>
      <feMerge>
        <feMergeNode in="b"/>
        <feMergeNode in="SourceGraphic"/>
      </feMerge>
    </filter>

    <!-- Fine grain -->
    <filter id="grain" x="0" y="0" width="100%" height="100%">
      <feTurbulence type="fractalNoise" baseFrequency="0.9" numOctaves="2" stitchTiles="stitch" result="n"/>
      <feColorMatrix type="saturate" values="0" in="n" result="g"/>
      <feComponentTransfer in="g">
        <feFuncA type="linear" slope="0.08"/>
      </feComponentTransfer>
    </filter>

    <!-- Edge highlight -->
    <linearGradient id="edge" x1="0" y1="0" x2="1" y2="1">
      <stop offset="0%" stop-color="#ffffff" stop-opacity=".12"/>
      <stop offset="100%" stop-color="#ffffff" stop-opacity=".03"/>
    </linearGradient>
  </defs>

  <!-- Background card (less rounded corners) -->
  <rect x="8" y="8" width="240" height="240" rx="10" fill="url(#bg)"/>
  <rect x="8.5" y="8.5" width="239" height="239" rx="9.5" fill="none" stroke="url(#edge)" stroke-width="1"/>

  <!-- Vignette + grain -->
  <rect x="8" y="8" width="240" height="240" rx="10" fill="url(#vig)"/>
  <rect x="8" y="8" width="240" height="240" rx="10" filter="url(#grain)"/>

  <!-- PN monogram -->
  <g fill="none" stroke="url(#stroke)" stroke-width="24" stroke-linecap="round" stroke-linejoin="round" filter="url(#glow)">
    <!-- P -->
    <path d="M78 188 L78 72
             C78 72, 128 72, 128 106
             C128 140, 78 140, 78 140" />
    <!-- N -->
    <path d="M116 188 L180 72 L180 188" />
  </g>
</svg>
